<?xml version="1.0" encoding="UTF-8" standalone="no"?>
<!DOCTYPE svg PUBLIC "-//W3C//DTD SVG 1.1//EN" "http://www.w3.org/Graphics/SVG/1.1/DTD/svg11.dtd">
<svg width="100%" height="100%" viewBox="0 0 357 108" version="1.1" xmlns="http://www.w3.org/2000/svg" xmlns:xlink="http://www.w3.org/1999/xlink" xml:space="preserve" xmlns:serif="http://www.serif.com/" style="fill-rule:evenodd;clip-rule:evenodd;stroke-linejoin:round;stroke-miterlimit:2;">
    <g transform="matrix(1,0,0,1,-557.496,-784.199)">
        <g transform="matrix(0.591033,0,0,0.591033,490.937,394.922)">
            <g transform="matrix(1,0,0,1,23.6873,0)">
                <path d="M124.424,837.888C118.917,837.888 114.921,837.162 112.435,835.709C109.95,834.257 108.707,832.112 108.707,829.276L108.707,750.001L102.903,750.001C97.534,750.001 94.849,745.8 94.849,737.398L94.849,731.071C94.849,722.669 97.534,718.468 102.903,718.468L108.707,718.468L108.707,700.399C108.707,692.736 110.043,686.239 112.714,680.906C115.386,675.574 119.309,671.516 124.484,668.733C129.659,665.95 135.926,664.559 143.285,664.559C147.569,664.559 151.689,664.959 155.643,665.759C159.598,666.558 162.864,667.649 165.442,669.032C168.02,670.414 169.309,672.11 169.309,674.12C169.309,675.003 169.116,676.665 168.731,679.104C168.346,681.544 167.848,684.161 167.235,686.956C166.623,689.75 165.876,692.184 164.994,694.256C164.113,696.328 163.176,697.364 162.183,697.364C161.287,697.364 160.119,697.023 158.678,696.34C157.238,695.658 155.434,695.317 153.265,695.317C150.792,695.317 149.048,695.958 148.034,697.239C147.02,698.521 146.513,700.743 146.513,703.903L146.513,718.468L158.053,718.468C163.422,718.468 166.107,722.669 166.107,731.071L166.107,737.398C166.107,745.8 163.422,750.001 158.053,750.001L146.513,750.001L146.513,829.276C146.513,832.112 145.27,834.257 142.784,835.709C140.299,837.162 136.302,837.888 130.793,837.888L124.424,837.888Z" style="fill-rule:nonzero;"/>
            </g>
            <g transform="matrix(-1,0,0,1,683.168,0)">
                <path d="M324.17,837.888C318.662,837.888 314.664,837.162 312.179,835.709C309.693,834.257 308.45,832.112 308.45,829.276L308.45,758.047C308.45,750.965 308.261,745.517 307.882,741.704C307.503,737.89 307.124,734.989 306.744,733.001C306.365,731.013 306.176,729.185 306.176,727.517C306.176,725.686 307.153,724.178 309.106,722.993C311.06,721.808 313.529,720.91 316.515,720.297C319.5,719.685 322.519,719.265 325.571,719.037C328.623,718.81 331.287,718.696 333.564,718.696C336.355,718.696 338.411,719.151 339.731,720.061C341.05,720.971 342.092,722.697 342.856,725.241C343.621,727.784 344.376,731.599 345.122,736.683C346.511,732.741 348.497,729.271 351.081,726.273C353.665,723.276 356.511,720.923 359.62,719.213C362.728,717.503 365.683,716.649 368.484,716.649C372.388,716.649 375.065,717.483 376.512,719.151C377.96,720.819 378.684,723.444 378.684,727.027C378.684,728.403 378.532,730.682 378.229,733.861C377.926,737.041 377.429,740.376 376.74,743.866C376.05,747.357 375.093,750.351 373.868,752.849C372.643,755.348 371.073,756.597 369.159,756.597C367.714,756.597 366.188,756.078 364.583,755.039C362.978,754 360.886,753.48 358.308,753.48C355.673,753.48 353.283,754.224 351.138,755.711C348.992,757.197 347.366,759.126 346.26,761.495L346.26,829.276C346.26,832.112 345.017,834.257 342.531,835.709C340.046,837.162 336.048,837.888 330.539,837.888L324.17,837.888Z" style="fill-rule:nonzero;"/>
            </g>
            <g transform="matrix(1,0,0,1,-11.8574,0)">
                <path d="M407.423,837.888C401.914,837.888 397.917,837.162 395.431,835.709C392.946,834.257 391.703,832.112 391.703,829.276L391.703,758.047C391.703,750.965 391.513,745.517 391.134,741.704C390.755,737.89 390.376,734.989 389.997,733.001C389.618,731.013 389.428,729.185 389.428,727.517C389.428,725.686 390.405,724.178 392.359,722.993C394.312,721.808 396.782,720.91 399.767,720.297C402.753,719.685 405.771,719.265 408.823,719.037C411.875,718.81 414.54,718.696 416.817,718.696C419.608,718.696 421.663,719.151 422.983,720.061C424.303,720.971 425.345,722.697 426.109,725.241C426.873,727.784 427.628,731.599 428.375,736.683C429.763,732.741 431.749,729.271 434.333,726.273C436.917,723.276 439.763,720.923 442.872,719.213C445.981,717.503 448.935,716.649 451.736,716.649C455.641,716.649 458.317,717.483 459.765,719.151C461.213,720.819 461.936,723.444 461.936,727.027C461.936,728.403 461.785,730.682 461.482,733.861C461.178,737.041 460.682,740.376 459.992,743.866C459.303,747.357 458.346,750.351 457.121,752.849C455.896,755.348 454.326,756.597 452.411,756.597C450.966,756.597 449.441,756.078 447.835,755.039C446.23,754 444.138,753.48 441.561,753.48C438.926,753.48 436.536,754.224 434.39,755.711C432.245,757.197 430.618,759.126 429.512,761.495L429.512,829.276C429.512,832.112 428.269,834.257 425.784,835.709C423.298,837.162 419.301,837.888 413.792,837.888L407.423,837.888Z" style="fill:rgb(87,62,40);fill-rule:nonzero;"/>
            </g>
            <g transform="matrix(1,0,0,1,-20.1035,-1.36479)">
                <path d="M525.09,839.253C504.63,839.253 489.518,833.899 479.753,823.191C469.989,812.484 465.107,797.506 465.107,778.256C465.107,764.471 467.457,753.029 472.158,743.93C476.859,734.832 483.503,728.01 492.09,723.466C500.677,718.921 510.722,716.649 522.226,716.649C534.123,716.649 543.86,719.033 551.439,723.801C559.018,728.57 564.642,735.211 568.312,743.726C571.983,752.241 573.818,762.234 573.818,773.707C573.818,776.005 573.015,778.435 571.41,780.997C569.804,783.558 567.873,785.717 565.615,787.472C563.357,789.228 561.23,790.106 559.235,790.106L503.986,790.106C504.125,797.484 506.536,802.593 511.218,805.431C515.9,808.27 521.465,809.689 527.912,809.689C533.151,809.689 537.943,809.092 542.289,807.896C546.634,806.701 550.374,805.544 553.507,804.426C556.641,803.307 558.966,802.748 560.482,802.748C562.326,802.748 564.027,804.07 565.584,806.713C567.142,809.356 568.411,812.285 569.391,815.5C570.371,818.716 570.861,821.245 570.861,823.088C570.861,825.283 569.525,827.359 566.855,829.319C564.185,831.278 560.616,833.01 556.148,834.513C551.681,836.017 546.748,837.182 541.35,838.011C535.953,838.839 530.533,839.253 525.09,839.253ZM503.776,766.361L537.811,766.361C537.811,758.778 536.458,753.402 533.753,750.232C531.049,747.062 526.915,745.476 521.351,745.476C518.378,745.476 515.579,745.966 512.956,746.944C510.333,747.923 508.185,749.899 506.513,752.873C504.84,755.846 503.928,760.342 503.776,766.361Z" style="fill:rgb(87,62,40);fill-rule:nonzero;"/>
            </g>
            <g transform="matrix(1,0,0,1,-31.9472,-1.36479)">
                <path d="M626.096,839.253C621.523,839.253 616.853,838.932 612.087,838.291C607.321,837.65 602.899,836.668 598.821,835.343C594.743,834.019 591.465,832.429 588.985,830.575C586.505,828.721 585.266,826.581 585.266,824.155C585.266,821.117 585.927,818.111 587.251,815.136C588.574,812.161 590.142,809.673 591.956,807.672C593.77,805.671 595.435,804.671 596.952,804.671C598.411,804.671 600.267,805.181 602.519,806.203C604.771,807.224 607.557,808.265 610.877,809.327C614.196,810.388 617.991,810.919 622.261,810.919C626.32,810.919 629.319,810.248 631.26,808.907C633.2,807.566 634.171,805.667 634.171,803.21C634.171,801.016 633.354,799.202 631.72,797.767C630.086,796.332 627.966,795.012 625.36,793.806C622.754,792.6 619.836,791.279 616.606,789.843C613.55,788.303 610.289,786.616 606.823,784.784C603.358,782.951 600.181,780.684 597.293,777.984C594.404,775.284 592.03,771.963 590.17,768.02C588.31,764.078 587.38,759.265 587.38,753.583C587.38,745.781 589.189,739.132 592.806,733.638C596.423,728.143 601.462,723.938 607.925,721.022C614.388,718.106 621.871,716.649 630.375,716.649C634.04,716.649 638.012,716.876 642.288,717.331C646.565,717.786 650.69,718.544 654.664,719.606C658.637,720.667 661.884,722.032 664.404,723.7C666.924,725.368 668.184,727.415 668.184,729.842C668.184,732.493 667.674,735.341 666.654,738.386C665.634,741.431 664.404,744.009 662.963,746.12C661.522,748.231 660.084,749.286 658.648,749.286C656.615,749.286 653.746,748.552 650.042,747.083C646.337,745.614 641.639,744.879 635.948,744.879C632.237,744.879 629.423,745.401 627.505,746.443C625.587,747.486 624.628,749.278 624.628,751.821C624.628,754 625.486,755.784 627.201,757.171C628.916,758.559 631.297,759.88 634.341,761.134C637.386,762.389 640.851,763.944 644.737,765.799C647.55,767.107 650.528,768.639 653.671,770.395C656.814,772.15 659.747,774.338 662.471,776.957C665.194,779.577 667.407,782.814 669.11,786.669C670.812,790.524 671.663,795.168 671.663,800.601C671.663,808.172 669.879,814.855 666.309,820.652C662.74,826.449 657.575,830.998 650.815,834.3C644.055,837.602 635.815,839.253 626.096,839.253Z" style="fill:rgb(87,62,40);fill-rule:nonzero;"/>
            </g>
            <g transform="matrix(1,0,0,1,-38.715,-1.36479)">
                <path d="M725.143,839.253C717.783,839.253 711.516,837.841 706.341,835.016C701.166,832.192 697.243,828.117 694.572,822.792C691.9,817.466 690.564,811.007 690.564,803.413L690.564,750.001L684.761,750.001C679.391,750.001 676.707,745.8 676.707,737.398L676.707,731.071C676.707,722.669 679.391,718.468 684.761,718.468L690.564,718.468L694.94,697.719C695.558,694.802 696.917,692.717 699.018,691.462C701.118,690.208 704.241,689.58 708.385,689.58L714.537,689.58C719.383,689.58 722.9,690.289 725.088,691.707C727.276,693.126 728.37,695.253 728.37,698.089L728.37,718.468L739.91,718.468C745.279,718.468 747.964,722.669 747.964,731.071L747.964,737.398C747.964,745.8 745.279,750.001 739.91,750.001L728.37,750.001L728.37,799.908C728.37,802.998 728.877,805.202 729.891,806.519C730.905,807.836 732.649,808.495 735.123,808.495C737.291,808.495 739.074,808.154 740.474,807.471C741.873,806.789 743.062,806.448 744.04,806.448C745.033,806.448 745.97,807.329 746.852,809.092C747.733,810.855 748.48,812.979 749.092,815.465C749.705,817.95 750.204,820.258 750.589,822.386C750.974,824.515 751.166,825.947 751.166,826.682C751.166,828.911 749.877,831.006 747.299,832.967C744.721,834.928 741.455,836.466 737.501,837.58C733.546,838.695 729.427,839.253 725.143,839.253Z" style="fill:rgb(87,62,40);fill-rule:nonzero;"/>
            </g>
        </g>
        <g id="leaf" transform="matrix(0.404254,0,0,0.404254,532.234,555.245)">
            <path d="M251.78,611.075C238.858,637.423 181.633,652.069 179.122,675.606C172.806,734.821 252.177,828.431 252.177,828.431C252.177,828.431 343.306,748.914 338.976,674.574C337.801,654.406 269.364,632.623 265.53,609.887C255.276,549.072 254.96,604.591 251.78,611.075Z" style="fill:rgb(41,63,22);"/>
        </g>
    </g>
</svg>
