<svg width="199" height="90" viewBox="0 0 199 90" fill="none" xmlns="http://www.w3.org/2000/svg">
<path d="M10.7333 89.4435C7.47732 89.4435 5.11496 89.0144 3.64565 88.1556C2.17694 87.2974 1.44228 86.0297 1.44228 84.3535V42.2548C1.44228 38.0691 1.32999 34.8491 1.10599 32.5955C0.881984 30.3413 0.657986 28.6267 0.433985 27.4518C0.209983 26.2768 0.0976868 25.1964 0.0976868 24.2106C0.0976868 23.1284 0.675126 22.2371 1.83 21.5367C2.98429 20.8363 4.44414 20.3056 6.20837 19.9433C7.97319 19.5816 9.75693 19.3333 11.5608 19.1986C13.3646 19.0644 14.9397 18.997 16.2855 18.997C17.935 18.997 19.1496 19.266 19.9298 19.8038C20.71 20.3416 21.3258 21.3618 21.7774 22.8654C22.2289 24.3684 22.6751 26.6231 23.1166 29.628C23.937 27.2981 25.1108 25.2472 26.638 23.4753C28.1653 21.704 29.8473 20.3133 31.6849 19.3026C33.5224 18.292 35.2683 17.7872 36.9238 17.7872C39.2317 17.7872 40.8134 18.2801 41.6692 19.266C42.525 20.2518 42.9523 21.8033 42.9523 23.9209C42.9523 24.7342 42.8631 26.0812 42.684 27.9601C42.5043 29.8396 42.2111 31.8107 41.8033 33.8734C41.3961 35.9367 40.8305 37.7062 40.1065 39.1826C39.3825 40.6596 38.4545 41.3978 37.3227 41.3978C36.4687 41.3978 35.5673 41.091 34.6181 40.477C33.6695 39.8629 32.4331 39.5555 30.91 39.5555C29.3526 39.5555 27.9401 39.9953 26.6717 40.8741C25.4039 41.7524 24.4423 42.8925 23.7886 44.2927V84.3535C23.7886 86.0297 23.054 87.2974 21.5853 88.1556C20.116 89.0144 17.7536 89.4435 14.4976 89.4435H10.7333Z" fill="#E0D9C0"/>
<path d="M75.4047 89.4436C63.3122 89.4436 54.3805 86.2792 48.609 79.9504C42.8382 73.6222 39.9528 64.7697 39.9528 53.3923C39.9528 45.2449 41.3417 38.4823 44.1201 33.1045C46.8986 27.7273 50.8254 23.6953 55.9006 21.0096C60.9758 18.3234 66.9127 16.9806 73.712 16.9806C80.7435 16.9806 86.4984 18.3896 90.9778 21.2077C95.4573 24.0263 98.7812 27.9513 100.95 32.984C103.12 38.0166 104.205 43.9228 104.205 50.7037C104.205 52.0619 103.73 53.4981 102.781 55.0124C101.832 56.526 100.691 57.802 99.3563 58.8393C98.0217 59.8771 96.7646 60.3961 95.5855 60.3961H62.9315C63.0137 64.7567 64.4387 67.7763 67.2059 69.4537C69.9731 71.1316 73.2622 71.9703 77.0726 71.9703C80.169 71.9703 83.0012 71.6174 85.5699 70.9106C88.1379 70.2043 90.3484 69.5205 92.2001 68.8597C94.0524 68.1983 95.4265 67.8679 96.3225 67.8679C97.4124 67.8679 98.4177 68.6493 99.338 70.2114C100.259 71.7735 101.009 73.5046 101.588 75.4048C102.167 77.3055 102.457 78.8003 102.457 79.8895C102.457 81.1869 101.667 82.4138 100.089 83.5722C98.5111 84.7301 96.4017 85.7538 93.761 86.6421C91.1209 87.531 88.2053 88.2195 85.0149 88.7095C81.8251 89.1989 78.6217 89.4436 75.4047 89.4436ZM62.8074 46.362H82.9232C82.9232 41.8802 82.1236 38.7028 80.5248 36.8292C78.9267 34.9557 76.4833 34.0183 73.1948 34.0183C71.4377 34.0183 69.7834 34.3079 68.2331 34.8859C66.6828 35.4645 65.4133 36.6324 64.4251 38.3901C63.4363 40.1473 62.8973 42.8046 62.8074 46.362Z" fill="#E0D9C0"/>
<path d="M128.103 89.4436C125.4 89.4436 122.64 89.2539 119.823 88.875C117.006 88.4962 114.392 87.9158 111.982 87.1326C109.572 86.3501 107.635 85.4104 106.169 84.3146C104.703 83.2188 103.971 81.954 103.971 80.5202C103.971 78.7246 104.361 76.9479 105.144 75.1896C105.926 73.4313 106.853 71.9608 107.925 70.7782C108.997 69.5955 109.981 69.0045 110.878 69.0045C111.74 69.0045 112.837 69.3059 114.168 69.9099C115.499 70.5134 117.145 71.1287 119.108 71.7563C121.069 72.3834 123.312 72.6973 125.836 72.6973C128.235 72.6973 130.007 72.3007 131.155 71.5081C132.301 70.7155 132.875 69.5932 132.875 68.141C132.875 66.8443 132.392 65.7721 131.427 64.924C130.461 64.0759 129.208 63.2957 127.668 62.5829C126.127 61.8701 124.403 61.0894 122.494 60.2406C120.687 59.3305 118.76 58.3334 116.712 57.2506C114.664 56.1672 112.786 54.8274 111.079 53.2316C109.372 51.6358 107.968 49.673 106.869 47.3425C105.77 45.0127 105.22 42.168 105.22 38.8098C105.22 34.1985 106.289 30.2688 108.427 27.0216C110.565 23.7739 113.543 21.2886 117.363 19.5651C121.183 17.8417 125.605 16.9806 130.632 16.9806C132.798 16.9806 135.145 17.1147 137.673 17.3836C140.2 17.6526 142.638 18.1006 144.987 18.7283C147.335 19.3553 149.254 20.1621 150.744 21.1479C152.233 22.1338 152.978 23.3436 152.978 24.7781C152.978 26.3449 152.677 28.0281 152.074 29.8278C151.471 31.6275 150.744 33.1512 149.892 34.3989C149.041 35.6466 148.191 36.2701 147.342 36.2701C146.14 36.2701 144.445 35.8363 142.255 34.9681C140.066 34.0998 137.289 33.6654 133.925 33.6654C131.732 33.6654 130.069 33.9739 128.935 34.5898C127.802 35.2062 127.235 36.2654 127.235 37.7684C127.235 39.0562 127.742 40.1107 128.756 40.9304C129.769 41.7508 131.177 42.5315 132.976 43.2727C134.775 44.0144 136.823 44.9335 139.12 46.0298C140.783 46.8029 142.543 47.7084 144.4 48.7462C146.258 49.7835 147.991 51.0767 149.601 52.6246C151.211 54.1731 152.519 56.0863 153.525 58.3647C154.531 60.6431 155.034 63.3879 155.034 66.599C155.034 71.0737 153.98 75.0235 151.87 78.4498C149.76 81.876 146.708 84.5646 142.712 86.5162C138.717 88.4678 133.847 89.4436 128.103 89.4436Z" fill="#E0D9C0"/>
<path d="M182.643 89.4436C178.293 89.4436 174.589 88.609 171.53 86.9394C168.471 85.2703 166.153 82.8618 164.574 79.7146C162.995 76.5667 162.205 72.7493 162.205 68.261V36.6927H158.776C155.602 36.6927 154.015 34.2098 154.015 29.2439V25.5044C154.015 20.5386 155.602 18.0557 158.776 18.0557H162.205L164.792 5.79231C165.157 4.06826 165.96 2.83595 167.202 2.0942C168.443 1.35305 170.289 0.981903 172.738 0.981903H176.374C179.238 0.981903 181.317 1.40092 182.61 2.239C183.903 3.07768 184.55 4.33482 184.55 6.01099V18.0557H191.37C194.544 18.0557 196.131 20.5386 196.131 25.5044V29.2439C196.131 34.2098 194.544 36.6927 191.37 36.6927H184.55V66.1894C184.55 68.0157 184.85 69.3183 185.449 70.0967C186.048 70.8751 187.079 71.2646 188.541 71.2646C189.822 71.2646 190.876 71.063 191.704 70.6594C192.531 70.2563 193.233 70.0547 193.811 70.0547C194.398 70.0547 194.952 70.5754 195.473 71.6174C195.994 72.6594 196.436 73.9148 196.797 75.3841C197.16 76.8528 197.454 78.2169 197.682 79.4746C197.91 80.7329 198.023 81.5793 198.023 82.0137C198.023 83.3311 197.261 84.5693 195.738 85.7283C194.214 86.8874 192.284 87.7964 189.947 88.4548C187.609 89.1138 185.175 89.4436 182.643 89.4436Z" fill="#E0D9C0"/>
</svg>
