<svg width="153" height="103" viewBox="0 0 153 103" fill="none" xmlns="http://www.w3.org/2000/svg">
<path d="M17.4797 102.443C14.2249 102.443 11.8631 102.014 10.3938 101.156C8.92507 100.297 8.19041 99.0296 8.19041 97.3535V50.4993H4.76006C1.5868 50.4993 -0.00012207 48.0164 -0.00012207 43.0506V39.3111C-0.00012207 34.3452 1.5868 31.8623 4.76006 31.8623H8.19041V21.1829C8.19041 16.6538 8.98003 12.8139 10.5587 9.66191C12.1379 6.51052 14.4565 4.11209 17.5151 2.46725C20.5737 0.822403 24.2777 0.000305176 28.6272 0.000305176C31.1591 0.000305176 33.5942 0.23669 35.9311 0.709516C38.2687 1.18175 40.199 1.82657 41.7227 2.64397C43.2464 3.46078 44.0082 4.46318 44.0082 5.65116C44.0082 6.17304 43.8941 7.15534 43.6666 8.59687C43.439 10.039 43.1447 11.5857 42.7824 13.2377C42.4207 14.889 41.9792 16.3276 41.4579 17.5522C40.9372 18.7768 40.3834 19.3891 39.7965 19.3891C39.2669 19.3891 38.5766 19.1876 37.7249 18.7839C36.8738 18.3808 35.8076 18.1793 34.5257 18.1793C33.064 18.1793 32.0333 18.5581 31.434 19.3153C30.8347 20.073 30.535 21.3862 30.535 23.2539V31.8623H37.3555C40.5288 31.8623 42.1157 34.3452 42.1157 39.3111V43.0506C42.1157 48.0164 40.5288 50.4993 37.3555 50.4993H30.535V97.3535C30.535 99.0296 29.8004 100.297 28.331 101.156C26.8623 102.014 24.5 102.443 21.244 102.443H17.4797Z" fill="white"/>
<path d="M142.121 102.443C145.376 102.443 147.739 102.014 149.208 101.156C150.677 100.297 151.412 99.0297 151.412 97.3535V55.2548C151.412 51.0691 151.523 47.8491 151.747 45.5955C151.971 43.3413 152.195 41.6267 152.42 40.4518C152.644 39.2768 152.756 38.1964 152.756 37.2106C152.756 36.1284 152.178 35.2371 151.024 34.5367C149.869 33.8363 148.41 33.3056 146.645 32.9433C144.881 32.5816 143.097 32.3333 141.293 32.1986C139.489 32.0644 137.914 31.997 136.569 31.997C134.919 31.997 133.704 32.266 132.924 32.8038C132.144 33.3416 131.528 34.3618 131.077 35.8654C130.625 37.3684 130.178 39.6231 129.737 42.628C128.916 40.2981 127.743 38.2472 126.215 36.4753C124.688 34.704 123.006 33.3133 121.169 32.3026C119.332 31.292 117.585 30.7872 115.93 30.7872C113.622 30.7872 112.04 31.2801 111.185 32.266C110.329 33.2518 109.901 34.8033 109.901 36.9209C109.901 37.7342 109.991 39.0812 110.17 40.9601C110.349 42.8396 110.643 44.8107 111.05 46.8734C111.458 48.9367 112.024 50.7062 112.748 52.1826C113.472 53.6596 114.399 54.3978 115.531 54.3978C116.385 54.3978 117.287 54.091 118.235 53.477C119.184 52.8629 120.42 52.5555 121.944 52.5555C123.501 52.5555 124.914 52.9953 126.182 53.8741C127.45 54.7524 128.411 55.8925 129.065 57.2927V97.3535C129.065 99.0297 129.799 100.297 131.269 101.156C132.737 102.014 135.1 102.443 138.356 102.443H142.121Z" fill="white"/>
<path fill-rule="evenodd" clip-rule="evenodd" d="M73.0211 14.5765C67.7974 25.2278 44.6639 31.1485 43.6488 40.6634C41.0956 64.6013 73.1816 102.444 73.1816 102.444C73.1816 102.444 110.021 70.2985 108.27 40.2462C107.795 32.0932 80.1295 23.2874 78.5796 14.0963C74.4344 -10.4885 74.3066 11.9553 73.0211 14.5765Z" fill="#D6E6BC"/>
</svg>
